<?xml version="1.0" encoding="UTF-8" standalone="no"?>
<!DOCTYPE svg PUBLIC "-//W3C//DTD SVG 1.1//EN" "http://www.w3.org/Graphics/SVG/1.1/DTD/svg11.dtd">
<svg width="100%" height="100%" viewBox="0 0 512 512" version="1.1" xmlns="http://www.w3.org/2000/svg" xmlns:xlink="http://www.w3.org/1999/xlink" xml:space="preserve" xmlns:serif="http://www.serif.com/" style="fill-rule:evenodd;clip-rule:evenodd;stroke-miterlimit:7;">
    <g transform="matrix(0.762977,0,0,0.551952,60.6781,114.7)">
        <path d="M512,58.013C512,25.995 493.307,0 470.283,0L41.717,0C18.693,0 0,25.995 0,58.013L0,453.987C0,486.005 18.693,512 41.717,512L470.283,512C493.307,512 512,486.005 512,453.987L512,58.013Z" style="fill:none;stroke:rgb(136,136,136);stroke-width:30.04px;"/>
    </g>
    <g transform="matrix(1.06178,0,0,1.06178,-15.8146,-15.8146)">
        <path d="M434,128L269,292C262,300 250,300 243,292L78,128M78,384L207,256M434,384L305,256" style="fill:none;fill-rule:nonzero;stroke:rgb(136,136,136);stroke-width:18.84px;stroke-miterlimit:4;"/>
    </g>
</svg>
