<?xml version="1.0" encoding="UTF-8" standalone="no"?>
<!DOCTYPE svg PUBLIC "-//W3C//DTD SVG 1.1//EN" "http://www.w3.org/Graphics/SVG/1.1/DTD/svg11.dtd">
<svg width="100%" height="100%" viewBox="0 0 512 512" version="1.1" xmlns="http://www.w3.org/2000/svg" xmlns:xlink="http://www.w3.org/1999/xlink" xml:space="preserve" xmlns:serif="http://www.serif.com/" style="fill-rule:evenodd;clip-rule:evenodd;">
    <g>
        <g transform="matrix(1.1626,0,0,1.1626,-41.6248,-41.6248)">
            <path d="M410,171.672C410,133.219 378.781,102 340.328,102L171.672,102C133.219,102 102,133.219 102,171.672L102,340.328C102,378.781 133.219,410 171.672,410L340.328,410C378.781,410 410,378.781 410,340.328L410,171.672Z" style="fill:none;stroke:rgb(136,136,136);stroke-width:17.2px;"/>
        </g>
        <g transform="matrix(1.1626,0,0,1.1626,-41.6248,-41.6248)">
            <circle cx="256" cy="256" r="72" style="fill:none;stroke:rgb(136,136,136);stroke-width:17.2px;"/>
        </g>
        <g transform="matrix(1.1626,0,0,1.1626,-41.6248,-41.6248)">
            <path d="M347,141.797C334.194,141.797 323.797,152.194 323.797,165C323.797,177.806 334.194,188.203 347,188.203C359.806,188.203 370.203,177.806 370.203,165C370.203,152.194 359.806,141.797 347,141.797ZM347,154.699C352.685,154.699 357.301,159.315 357.301,165C357.301,170.685 352.685,175.301 347,175.301C341.315,175.301 336.699,170.685 336.699,165C336.699,159.315 341.315,154.699 347,154.699Z" style="fill:rgb(136,136,136);"/>
        </g>
    </g>
</svg>
